<svg width="71" height="71" viewBox="0 0 71 71" fill="none" xmlns="http://www.w3.org/2000/svg">
    <path fill-rule="evenodd" clip-rule="evenodd"
        d="M20.151 70.9163H50.8454C62.8526 70.9163 70.9166 62.4939 70.9166 49.9613V21.0381C70.9166 8.50549 62.8526 0.0830078 50.8489 0.0830078H20.151C8.14732 0.0830078 0.083313 8.50549 0.083313 21.0381V49.9613C0.083313 62.4939 8.14732 70.9163 20.151 70.9163ZM23.1001 31.9578C18.2174 31.9578 14.25 27.9851 14.25 23.1037C14.25 18.2223 18.2174 14.2495 23.1001 14.2495C27.9792 14.2495 31.9502 18.2223 31.9502 23.1037C31.9502 27.9851 27.9792 31.9578 23.1001 31.9578ZM63.1987 45.8909C64.3847 48.9319 63.7685 52.5868 62.5007 55.5985C60.9977 59.1804 58.1201 61.8924 54.4946 63.0766C52.8848 63.6029 51.1967 63.8332 49.5122 63.8332H19.6639C16.6937 63.8332 14.0654 63.1204 11.9107 61.7937C10.5609 60.9604 10.3223 59.0378 11.3231 57.7915C12.997 55.7082 14.6495 53.6175 16.3162 51.5086C19.493 47.4735 21.6334 46.3039 24.0124 47.331C24.9776 47.755 25.9463 48.3909 26.9435 49.0634C29.6003 50.869 33.2935 53.3507 38.1584 50.657C41.4875 48.7924 43.4185 45.594 45.0999 42.8088L45.1281 42.7623C45.247 42.5672 45.3649 42.3721 45.4825 42.1776L45.483 42.1767C46.0482 41.2416 46.6057 40.3191 47.2364 39.4691C48.0271 38.4055 50.9581 35.0795 54.7546 37.4479C57.1728 38.9392 59.2063 40.9567 61.3824 43.1168C62.2122 43.9428 62.8034 44.8821 63.1987 45.8909Z"
        fill="#F5F6F8" />
</svg>
