<svg width="20" height="20" viewBox="0 0 20 20" fill="none" xmlns="http://www.w3.org/2000/svg">
    <path
        d="M9.84281 16.1223C10.1028 15.9821 10.2649 15.7154 10.2649 15.4253V10.9081H19.1841C19.6345 10.9081 20 10.5511 20 10.1111C20 9.67122 19.6345 9.31418 19.1841 9.31418H10.2649V4.79702C10.2649 4.50586 10.1028 4.23914 9.84281 4.09994C9.58281 3.95861 9.26516 3.96818 9.01387 4.12226L0.380745 9.43638C0.143595 9.58302 0 9.83699 0 10.1111C0 10.3853 0.143595 10.6393 0.380745 10.7859L9.01387 16.1C9.14659 16.1808 9.2978 16.2222 9.44901 16.2222C9.5839 16.2222 9.71988 16.1882 9.84281 16.1223Z"
        fill="black" />
</svg>
