<svg width="20" height="20" viewBox="0 0 20 20" fill="none" xmlns="http://www.w3.org/2000/svg">
    <path
        d="M10 20L9.72023 19.9962C4.32942 19.8478 -3.99833e-07 15.4264 -8.74228e-07 10C-1.35593e-06 4.49 4.48 1.3568e-06 10 8.74228e-07C15.51 3.92528e-07 20 4.49 20 10C20 15.52 15.51 20 10 20ZM8.02 14C8.32 14.3 8.79 14.3 9.08 14L12.57 10.53C12.71 10.39 12.79 10.2 12.79 10C12.79 9.8 12.71 9.61 12.57 9.47L9.08 6C8.94 5.85 8.75 5.78 8.56 5.78C8.36 5.78 8.17 5.85 8.02 6C7.73 6.3 7.73 6.77 8.03 7.06L10.98 10L8.03 12.94C7.73 13.23 7.73 13.71 8.02 14Z"
        fill="black" />
</svg>
